<svg xmlns="http://www.w3.org/2000/svg" viewBox="0 0 128 128" role="img" aria-label="RTFiller off icon">
  <defs>
    <linearGradient id="bg" x1="18" y1="12" x2="110" y2="118" gradientUnits="userSpaceOnUse">
      <stop offset="0" stop-color="#f06a5f"/>
      <stop offset="1" stop-color="#9c1f35"/>
    </linearGradient>
    <linearGradient id="paper" x1="36" y1="28" x2="94" y2="102" gradientUnits="userSpaceOnUse">
      <stop offset="0" stop-color="#ffffff"/>
      <stop offset="1" stop-color="#ffe9e4"/>
    </linearGradient>
    <filter id="shadow" x="-20%" y="-20%" width="140%" height="150%">
      <feDropShadow dx="0" dy="8" stdDeviation="8" flood-color="#4a0917" flood-opacity="0.28"/>
    </filter>
  </defs>

  <rect width="128" height="128" rx="28" fill="url(#bg)"/>
  <path d="M105 24l3 8 8 3-8 3-3 8-3-8-8-3 8-3 3-8z" fill="#ffd0aa"/>
  <path d="M28 96l2 6 6 2-6 2-2 6-2-6-6-2 6-2 2-6z" fill="#ffb7b0"/>

  <g filter="url(#shadow)">
    <rect x="31" y="27" width="66" height="78" rx="12" fill="url(#paper)"/>
    <rect x="43" y="43" width="42" height="8" rx="4" fill="#8e2536" opacity="0.9"/>
    <rect x="43" y="58" width="32" height="7" rx="3.5" fill="#dd7b76"/>
    <rect x="43" y="72" width="42" height="7" rx="3.5" fill="#dd7b76"/>
    <rect x="43" y="86" width="25" height="7" rx="3.5" fill="#dd7b76"/>
  </g>

  <g>
    <rect x="67" y="71" width="37" height="25" rx="8" fill="#3a1119"/>
    <path d="M78 79h9c4 0 7 3 7 6.5S91 92 87 92h-9V79zm7 5v3h2c.9 0 1.6-.7 1.6-1.5S87.9 84 87 84h-2z" fill="#ffffff"/>
    <path d="M74 66l2.5 6.5L83 75l-6.5 2.5L74 84l-2.5-6.5L65 75l6.5-2.5L74 66z" fill="#ffd0aa"/>
  </g>
</svg>
